<svg xmlns="http://www.w3.org/2000/svg" version="1.1" xmlns:xlink="http://www.w3.org/1999/xlink" width="35.5mm" height="35.5mm"><svg xmlns="http://www.w3.org/2000/svg" version="1.1" xmlns:xlink="http://www.w3.org/1999/xlink" width="35.5mm" height="35.5mm"><svg width="35.5mm" height="35.5mm" viewBox="0 0 35.5 35.5" version="1.1" id="svg1" sodipodi:docname="drawing-1.svg" inkscape:version="1.4.3 (0d15f75042, 2025-12-25)" xmlns:inkscape="http://www.inkscape.org/namespaces/inkscape" xmlns:sodipodi="http://sodipodi.sourceforge.net/DTD/sodipodi-0.dtd" xmlns="http://www.w3.org/2000/svg" xmlns:svg="http://www.w3.org/2000/svg">
  <sodipodi:namedview id="namedview1" pagecolor="#ffffff" bordercolor="#000000" borderopacity="0.25" inkscape:showpageshadow="2" inkscape:pageopacity="0.0" inkscape:pagecheckerboard="0" inkscape:deskcolor="#d1d1d1" inkscape:document-units="mm" inkscape:zoom="2.8284271" inkscape:cx="27.400388" inkscape:cy="50.734911" inkscape:window-width="1728" inkscape:window-height="1080" inkscape:window-x="0" inkscape:window-y="0" inkscape:window-maximized="1" inkscape:current-layer="layer1"></sodipodi:namedview>
  <defs id="defs1"></defs>
  <g inkscape:label="Layer 1" inkscape:groupmode="layer" id="layer1" transform="translate(-28.0508,-87.506096)">
    <rect style="fill:#f4f7ff;fill-opacity:1;stroke:#000000;stroke-width:0.5;stroke-dasharray:none;stroke-opacity:1" id="rect2" width="35" height="35" x="28.3008" y="87.756096" rx="5" ry="5"></rect>
    <text xml:space="preserve" style="font-weight:bold;font-size:8.46667px;line-height:10.5834px;font-family:'CMU Sans Serif';-inkscape-font-specification:'CMU Sans Serif Bold';text-align:center;text-decoration-color:#000000;letter-spacing:0px;word-spacing:0px;writing-mode:lr-tb;direction:ltr;text-anchor:middle;opacity:1;fill:#000000;fill-opacity:1;stroke:none;stroke-width:0.499999;stroke-dasharray:none;stroke-opacity:1" x="45.678036" y="104.91998" id="text5"><tspan sodipodi:role="line" id="tspan5" style="fill:#000000;fill-opacity:1;stroke:none;stroke-width:0.5" x="45.678036" y="104.91998">DI-CFD</tspan></text>
    <g id="g7" transform="matrix(0.75378965,0,0,0.75378965,-42.847798,-70.862776)" style="mix-blend-mode:normal;fill:#000000;fill-opacity:1;stroke:none;stroke-opacity:1">
      <path class="st1" d="m 111.66235,246.28333 c 0.71179,0 1.10055,-0.47452 1.10055,-1.13771 v -3.38455 h 1.51504 v 3.46173 c -0.0143,1.52362 -1.2349,2.12106 -2.61559,2.12106 -1.38069,0 -2.59844,-0.59744 -2.61559,-2.12106 v -3.46173 h 1.51504 v 3.38455 c 0.003,0.66319 0.38877,1.13771 1.10055,1.13771 z" id="path1" style="opacity:0.519998;fill:#000000;fill-opacity:1;stroke:none;stroke-width:0.285857;stroke-opacity:1"></path>
      <polygon points="86.97,223 86.97,207.58 92.91,207.58 92.91,203.87 75.73,203.87 75.73,207.58 81.67,207.58 81.67,223 " id="polygon1" style="opacity:0.519998;fill:#000000;fill-opacity:1;stroke:none;stroke-opacity:1" transform="matrix(0.28585722,0,0,0.28585722,81.775979,183.48336)"></polygon>
      <path d="m 108.76376,239.09688 c -0.36876,0.1172 -0.75181,0.0229 -0.74895,-0.47166 0,-0.75467 1.76946,-1.38641 2.0153,-2.04388 0.06,-0.16294 0.0657,-0.30015 -0.0143,-0.29443 -0.0572,0.003 -0.0114,0.0857 -0.13721,0.20867 -0.73179,0.73465 -1.96098,0.7318 -2.90431,1.15486 -0.61745,0.27729 -2.42978,1.12914 -2.01243,3.03009 0.02,0.0915 0.0743,0.39163 0.12863,0.39163 0.0629,0 0.0629,-0.18009 0.0629,-0.39735 -0.0143,-1.13199 1.32638,-1.44643 1.76374,-2.1868 0.0515,-0.0886 0.14293,-0.21154 0.16294,-0.15437 0.0114,0.0286 0.003,0.0686 -0.0143,0.14865 -0.13721,0.60888 -0.77182,0.99764 -0.59173,1.43214 0.23441,0.56314 0.90617,0.14293 1.11485,-0.22011 0.0543,-0.10005 0.0857,-0.16293 0.12291,-0.1515 0.0286,0.009 0.0257,0.12292 0.009,0.22583 -0.11148,0.65461 -0.26013,1.02051 -0.74037,1.39498 -0.15436,0.12006 -0.39448,0.14293 -0.36304,0.2344 0.009,0.0229 0.11149,0.02 0.19438,0.0114 1.27493,-0.0829 2.34117,-1.58365 2.62417,-2.567 0.0286,-0.0686 0.0372,-0.13435 0.009,-0.15722 -0.0372,-0.0286 -0.0943,0.0372 -0.15151,0.0886 -0.14578,0.1315 -0.34588,0.26585 -0.52883,0.32302 z" id="path2" style="opacity:0.519998;fill:#000000;fill-opacity:1;stroke:none;stroke-width:0.285857;stroke-opacity:1"></path>
      <path d="m 121.70166,244.96553 c 0.006,-0.59458 0.36304,-1.12914 0.96334,-1.12914 0.69749,0 0.96905,0.47739 0.96905,1.12914 z m 2.69277,0.50025 v -0.35732 c 0,-1.05196 -0.59744,-1.79518 -1.67512,-1.79518 -1.20346,0 -1.7666,0.93189 -1.7666,2.04673 0,1.12056 0.48596,1.98671 1.70657,1.98671 0.90902,0 1.57507,-0.43164 1.68941,-1.29493 h -0.75752 c -0.0829,0.5517 -0.36304,0.77181 -0.92332,0.77181 -0.73465,0 -0.98049,-0.65461 -0.98049,-1.35496 h 2.70707 z" id="path3-8" style="opacity:0.519998;fill:#000000;fill-opacity:1;stroke:none;stroke-width:0.285857;stroke-opacity:1"></path>
      <rect x="125.2663" y="241.76106" width="0.72036016" height="5.4684482" id="rect3" style="opacity:0.519998;fill:#000000;fill-opacity:1;stroke:none;stroke-width:0.285857;stroke-opacity:1"></rect>
      <path d="m 128.24493,247.22952 v -3.30165 h 0.87758 v -0.50025 h -0.87758 v -0.61459 c 0,-0.44022 0.21153,-0.51455 0.62031,-0.51455 0.12006,0 0.24298,0.0143 0.36304,0.0229 v -0.59744 c -0.16866,-0.0372 -0.34017,-0.0772 -0.51455,-0.0772 -0.68034,0 -1.18916,0.34303 -1.18916,1.0691 v 0.71179 h -0.74323 v 0.50025 h 0.74323 v 3.30165 z" id="path4" style="opacity:0.519998;fill:#000000;fill-opacity:1;stroke:none;stroke-width:0.285857;stroke-opacity:1"></path>
      <path d="m 129.53414,243.42762 v 0.50025 h 0.65176 v 2.42407 c 0,0.50597 0.009,0.99192 1.07768,0.99192 0.1658,0 0.32302,-0.0143 0.49168,-0.0457 v -0.55171 c -0.11721,0.0286 -0.26585,0.0457 -0.38019,0.0457 -0.25728,0 -0.46881,-0.12864 -0.46881,-0.4002 v -2.46123 h 0.87758 v -0.50025 h -0.87758 v -1.03766 l -0.72036,0.22582 v 0.81184 z" id="path5" style="opacity:0.519998;fill:#000000;fill-opacity:1;stroke:none;stroke-width:0.285857;stroke-opacity:1"></path>
      <path d="m 115.79299,247.22952 h 1.87808 c 2.33831,0 2.58415,-1.98099 2.58415,-2.73565 0,-0.75467 -0.24584,-2.73566 -2.58415,-2.73566 h -1.87808 z m 0.75752,-4.81669 h 1.12056 c 1.26349,0 1.78947,0.95476 1.78947,2.0839 0,1.12913 -0.52598,2.08389 -1.78947,2.08389 h -1.12056 z" id="path6" style="opacity:0.519998;fill:#000000;fill-opacity:1;stroke:none;stroke-width:0.285857;stroke-opacity:1"></path>
    </g>
  </g>
</svg></svg><style>@media (prefers-color-scheme: light) { :root { filter: none; } }
@media (prefers-color-scheme: dark) { :root { filter: none; } }
</style></svg>