<?xml version="1.0" encoding="UTF-8" standalone="no"?>
<!-- Uploaded to: SVG Repo, www.svgrepo.com, Generator: SVG Repo Mixer Tools -->

<svg
   fill="#000000"
   width="800px"
   height="800px"
   viewBox="0 0 24 24"
   role="img"
   version="1.1"
   id="svg1"
   sodipodi:docname="font.svg"
   inkscape:version="1.4 (e7c3feb100, 2024-10-09)"
   xmlns:inkscape="http://www.inkscape.org/namespaces/inkscape"
   xmlns:sodipodi="http://sodipodi.sourceforge.net/DTD/sodipodi-0.dtd"
   xmlns="http://www.w3.org/2000/svg"
   xmlns:svg="http://www.w3.org/2000/svg">
  <defs
     id="defs1" />
  <sodipodi:namedview
     id="namedview1"
     pagecolor="#ffffff"
     bordercolor="#000000"
     borderopacity="0.25"
     inkscape:showpageshadow="2"
     inkscape:pageopacity="0.0"
     inkscape:pagecheckerboard="0"
     inkscape:deskcolor="#d1d1d1"
     inkscape:zoom="0.70710678"
     inkscape:cx="444.77017"
     inkscape:cy="499.21739"
     inkscape:window-width="1920"
     inkscape:window-height="1011"
     inkscape:window-x="0"
     inkscape:window-y="0"
     inkscape:window-maximized="1"
     inkscape:current-layer="svg1" />
  <rect
     style="fill:#ffffff;stroke:#ffe000;stroke-width:0.00242762"
     id="rect1"
     width="19.177307"
     height="21.105253"
     x="2.5028718"
     y="1.5507333" />
  <path
     d="M19.536 0H4.464A4.463 4.463 0 0 0 0 4.464v15.073A4.463 4.463 0 0 0 4.464 24h15.073A4.463 4.463 0 0 0 24 19.536V4.464A4.463 4.463 0 0 0 19.536 0zm1.193 6.493v3.871l-.922-.005c-.507-.003-.981-.021-1.052-.041-.128-.036-.131-.05-.192-.839-.079-1.013-.143-1.462-.306-2.136-.352-1.457-1.096-2.25-2.309-2.463-.509-.089-2.731-.176-4.558-.177L10.13 4.7v5.82l.662-.033c.757-.038 1.353-.129 1.64-.252.306-.131.629-.462.781-.799.158-.352.262-.815.345-1.542.033-.286.07-.572.083-.636.024-.116.028-.117 1.036-.117h1.012v9.3h-2.062l-.035-.536c-.063-.971-.252-1.891-.479-2.331-.311-.601-.922-.871-2.151-.95a11.422 11.422 0 0 1-.666-.059l-.172-.027.02 2.926c.021 3.086.03 3.206.265 3.465.241.266.381.284 2.827.368.05.002.065.246.065 1.041v1.039H3.271v-1.039c0-.954.007-1.039.091-1.041.05-.001.543-.023 1.097-.049.891-.042 1.033-.061 1.244-.167a.712.712 0 0 0 .345-.328c.106-.206.107-.254.107-6.78 0-6.133-.006-6.584-.09-6.737a.938.938 0 0 0-.553-.436c-.104-.032-.65-.07-1.215-.086l-1.026-.027V2.622h17.458v3.871z"
     id="path1" />
</svg>
