<?xml version="1.0" encoding="UTF-8" standalone="no"?>
<!-- Created with Inkscape (http://www.inkscape.org/) -->

<svg
   width="25.966202mm"
   height="10.12251mm"
   viewBox="0 0 25.966202 10.12251"
   version="1.1"
   id="svg1"
   inkscape:version="1.4.1 (93de688d07, 2025-03-30)"
   sodipodi:docname="tudelft.svg"
   xml:space="preserve"
   xmlns:inkscape="http://www.inkscape.org/namespaces/inkscape"
   xmlns:sodipodi="http://sodipodi.sourceforge.net/DTD/sodipodi-0.dtd"
   xmlns="http://www.w3.org/2000/svg"
   xmlns:svg="http://www.w3.org/2000/svg"><sodipodi:namedview
     id="namedview1"
     pagecolor="#ffffff"
     bordercolor="#000000"
     borderopacity="0.25"
     inkscape:showpageshadow="2"
     inkscape:pageopacity="0.0"
     inkscape:pagecheckerboard="0"
     inkscape:deskcolor="#d1d1d1"
     inkscape:document-units="mm"
     inkscape:zoom="2.0157702"
     inkscape:cx="66.475832"
     inkscape:cy="153.78737"
     inkscape:window-width="1728"
     inkscape:window-height="1011"
     inkscape:window-x="0"
     inkscape:window-y="0"
     inkscape:window-maximized="1"
     inkscape:current-layer="g7246" /><defs
     id="defs1" /><g
     inkscape:label="Layer 1"
     inkscape:groupmode="layer"
     id="layer1"
     transform="translate(-153.31,-48.749593)"><g
       transform="matrix(0.06389087,0,0,-0.06389087,145.69226,81.67653)"
       id="g7246"
       style="display:inline;fill:#1a5fb4"><g
         transform="matrix(4.0963091,0,0,4.0963091,237.27758,372.13738)"
         id="g7238"
         style="fill:#00a6d6;fill-opacity:1"><path
           d="m 0,0 c 2.492,0 3.846,1.654 3.846,3.976 v 11.842 h 5.3 V 3.712 C 9.094,-1.618 4.825,-3.71 0,-3.71 c -4.825,0 -9.094,2.092 -9.147,7.422 v 12.106 h 5.301 V 3.976 C -3.846,1.654 -2.492,0 0,0"
           id="path7238"
           style="fill:#00a6d6;fill-opacity:1;fill-rule:nonzero;stroke:none" /></g><g
         transform="matrix(4.0963091,0,0,4.0963091,381.13995,391.02137)"
         id="g7239"
         style="fill:#000000"><path
           d="M 0,0 C 0.018,2.075 1.274,3.95 3.37,3.95 5.808,3.95 6.761,2.279 6.761,0 Z m 9.414,-1.75 v 1.247 c 0,3.684 -2.086,6.283 -5.86,6.283 -4.214,0 -6.177,-3.261 -6.177,-7.158 0,-3.924 1.698,-6.945 5.966,-6.945 3.181,0 5.514,1.509 5.912,4.532 H 6.605 C 6.312,-5.726 5.332,-6.494 3.37,-6.494 c -2.573,0 -3.427,2.288 -3.427,4.744 z"
           id="path7239"
           style="fill:#000000;fill-opacity:1;fill-rule:nonzero;stroke:none" /></g><path
         d="m 442.53666,436.93198 h -10.3227 v -78.38287 h 10.3227 z"
         id="path7240"
         style="fill:#000000;fill-opacity:1;fill-rule:nonzero;stroke:none" /><g
         transform="matrix(4.0963091,0,0,4.0963091,143.55443,358.55402)"
         id="g7241"
         style="fill:#000000"><path
           d="m 0,0 h 5.301 v 15.421 h 5.938 v 3.712 H -5.938 V 15.421 H 0 Z"
           id="path7241"
           style="fill:#000000;fill-opacity:1;fill-rule:nonzero;stroke:none" /></g><g
         transform="matrix(4.0963091,0,0,4.0963091,195.71233,475.09402)"
         id="g7242"
         style="fill:#000000"><path
           d="M 0,0 C -1.292,-0.406 -2.626,-0.081 -2.623,1.649 -2.621,4.285 3.57,6.495 4.428,8.798 4.641,9.372 4.654,9.845 4.379,9.83 4.182,9.819 4.336,9.533 3.903,9.098 1.338,6.533 -2.958,6.537 -6.255,5.06 c -2.162,-0.971 -8.498,-3.952 -7.04,-10.603 0.07,-0.315 0.258,-1.374 0.452,-1.374 0.224,0 0.222,0.629 0.216,1.393 -0.048,3.96 4.641,5.064 6.167,7.651 0.182,0.31 0.498,0.744 0.573,0.542 0.036,-0.097 0.013,-0.241 -0.049,-0.516 -0.478,-2.126 -2.701,-3.491 -2.071,-5.01 0.816,-1.973 3.174,-0.502 3.897,0.766 0.194,0.349 0.303,0.572 0.433,0.527 0.097,-0.034 0.094,-0.435 0.033,-0.795 -0.387,-2.288 -0.913,-3.573 -2.588,-4.875 -0.535,-0.417 -1.378,-0.504 -1.267,-0.824 0.028,-0.083 0.391,-0.074 0.68,-0.045 C -2.36,-7.818 1.37,-2.56 2.358,0.874 2.461,1.116 2.493,1.343 2.383,1.428 2.249,1.532 2.053,1.293 1.854,1.117 1.344,0.669 0.645,0.203 0,0"
           id="path7242"
           style="fill:#000000;fill-opacity:1;fill-rule:nonzero;stroke:none" /></g><g
         transform="matrix(4.0963091,0,0,4.0963091,474.87579,358.55402)"
         id="g7243"
         style="fill:#000000"><path
           d="m 0,0 v 11.551 h 3.072 v 1.752 H 0 v 2.148 c 0,1.538 0.74,1.802 2.174,1.802 0.422,0 0.847,-0.055 1.271,-0.078 v 2.091 c -0.59,0.134 -1.191,0.265 -1.803,0.265 -2.384,0 -4.162,-1.195 -4.162,-3.742 V 13.303 H -5.115 V 11.551 H -2.52 V 0 Z"
           id="path7243"
           style="fill:#000000;fill-opacity:1;fill-rule:nonzero;stroke:none" /></g><g
         transform="matrix(4.0963091,0,0,4.0963091,493.39111,413.04722)"
         id="g7244"
         style="fill:#000000"><path
           d="m 0,0 v -1.752 h 2.28 v -8.478 c 0,-1.77 0.025,-3.47 3.766,-3.47 0.582,0 1.129,0.054 1.721,0.158 v 1.935 c -0.409,-0.099 -0.927,-0.16 -1.325,-0.16 -0.902,0 -1.642,0.453 -1.642,1.405 v 8.61 H 7.874 V 0 H 4.8 V 3.631 L 2.28,2.836 v -2.838 z"
           id="path7244"
           style="fill:#000000;fill-opacity:1;fill-rule:nonzero;stroke:none" /></g><g
         transform="matrix(4.0963091,0,0,4.0963091,296.45695,358.55402)"
         id="g7245"
         style="fill:#000000"><path
           d="m 0,0 h 6.573 c 8.184,0 9.043,6.926 9.043,9.566 0,2.638 -0.859,9.568 -9.043,9.568 H 0 Z m 2.655,16.856 h 3.919 c 4.423,0 6.258,-3.337 6.258,-7.29 0,-3.954 -1.835,-7.288 -6.258,-7.288 H 2.655 Z"
           id="path7245"
           style="fill:#000000;fill-opacity:1;fill-rule:nonzero;stroke:none" /></g></g></g></svg>
