<?xml version="1.0" ?><!DOCTYPE svg  PUBLIC '-//W3C//DTD SVG 1.1 Tiny//EN'  'http://www.w3.org/Graphics/SVG/1.1/DTD/svg11-tiny.dtd'><svg baseProfile="tiny" height="500px" id="Layer_1" overflow="auto" version="1.1" viewBox="0 0 500 500" width="500px" xml:space="preserve" xmlns="http://www.w3.org/2000/svg" xmlns:xlink="http://www.w3.org/1999/xlink"><g><path d="M359.688,31.938c-17.69-4.072-69.403,127.513-69.403,127.513s-8.165-2.554-35.384-2.554   c-23.265,0-34.567,2.07-37.369,3.509c-8.734-21.753-53.894-131.43-69.766-127.778c-17.692,4.07-91.98,168.312-91.98,312.102   c0,116.321,110.434,117.604,202.166,117.604c83.953,0,195.637-1.332,195.637-122.469   C453.588,196.076,377.378,36.008,359.688,31.938z M105.914,186.346c-0.011-0.004-0.004-0.021,0.014-0.046   c13.65-47.807,35.841-87.159,42.285-88.62c9.049-2.054,32.287,54.468,37.266,66.696c-0.516-0.597-20.031,0.291-39.649,5.293   c-27.111,6.912-39.391,15.917-39.902,16.63C105.923,186.315,105.918,186.331,105.914,186.346z M251.584,330.409   c-137.903,0-138.648-19.146-138.648-19.146l17.008-59.073c0,0,8.241,7.019,125.479,7.019c109.544,0,122.561-7.019,122.561-7.019   l17.007,59.073C394.991,311.263,392.037,330.409,251.584,330.409z M362.24,169.657c-19.624-5.011-39.145-5.899-39.66-5.302   c4.98-12.247,28.226-68.857,37.278-66.799c6.444,1.462,28.645,40.876,42.298,88.756C401.645,185.6,389.361,176.58,362.24,169.657z"/></g></svg>