<?xml version="1.0" encoding="UTF-8" standalone="no"?>
<svg
   fill="#000000"
   width="24px"
   height="24px"
   viewBox="0 0 1024 1024"
   version="1.1"
   id="svg1"
   sodipodi:docname="bluesky.svg"
   inkscape:version="1.4 (e7c3feb100, 2024-10-09)"
   xmlns:inkscape="http://www.inkscape.org/namespaces/inkscape"
   xmlns:sodipodi="http://sodipodi.sourceforge.net/DTD/sodipodi-0.dtd"
   xmlns="http://www.w3.org/2000/svg"
   xmlns:svg="http://www.w3.org/2000/svg">
  <defs
     id="defs1" />
  <sodipodi:namedview
     id="namedview1"
     pagecolor="#ffffff"
     bordercolor="#000000"
     borderopacity="0.25"
     inkscape:showpageshadow="2"
     inkscape:pageopacity="0.0"
     inkscape:pagecheckerboard="0"
     inkscape:deskcolor="#d1d1d1"
     inkscape:zoom="23.570226"
     inkscape:cx="10.373256"
     inkscape:cy="13.406745"
     inkscape:window-width="1920"
     inkscape:window-height="1011"
     inkscape:window-x="0"
     inkscape:window-y="0"
     inkscape:window-maximized="1"
     inkscape:current-layer="svg1" />
  <path
     d="m 221.85447,180.72884 c 116.73214,87.63513 242.29082,265.32263 288.38961,360.68014 46.10237,-95.35047 171.65397,-273.04678 288.38979,-360.68014 84.22748,-63.234 220.69833,-112.160879 220.69833,43.52702 0,31.093 -17.8267,261.19731 -28.28244,298.55381 -36.34375,129.87721 -168.77863,163.00299 -286.58167,142.95371 205.91758,35.04635 258.30084,151.13251 145.17264,267.21865 -214.85269,220.47017 -308.80565,-55.3168 -332.89082,-125.98355 -4.41299,-12.95493 -6.47818,-19.01531 -6.50881,-13.86195 -0.0298,-5.15371 -2.09483,0.90702 -6.50861,13.86195 C 479.65785,877.66523 385.70651,1153.4592 170.84146,932.98203 57.711478,816.89589 110.09314,700.80268 316.01399,665.76338 198.20751,685.81266 65.770866,652.6867 29.432504,522.80967 18.976554,485.44968 1.1500258,255.34534 1.1500258,224.25586 1.1500258,68.567961 137.62427,117.49484 221.84851,180.72884 Z"
     fill="#1185fe"
     id="path1-5"
     style="stroke-width:1.75549" />
</svg>
