<?xml version="1.0" encoding="UTF-8" standalone="no"?>
<svg
   xmlns:dc="http://purl.org/dc/elements/1.1/"
   xmlns:cc="http://creativecommons.org/ns#"
   xmlns:rdf="http://www.w3.org/1999/02/22-rdf-syntax-ns#"
   xmlns:svg="http://www.w3.org/2000/svg"
   xmlns="http://www.w3.org/2000/svg"
   xmlns:sodipodi="http://sodipodi.sourceforge.net/DTD/sodipodi-0.dtd"
   xmlns:inkscape="http://www.inkscape.org/namespaces/inkscape"
   fill="#000000"
   width="24px"
   height="24px"
   viewBox="0 0 1024 1024"
   version="1.1"
   id="svg4"
   sodipodi:docname="orcid2.svg"
   inkscape:version="1.0.1 (3bc2e813f5, 2020-09-07, custom)">
  <metadata
     id="metadata10">
    <rdf:RDF>
      <cc:Work
         rdf:about="">
        <dc:format>image/svg+xml</dc:format>
        <dc:type
           rdf:resource="http://purl.org/dc/dcmitype/StillImage" />
      </cc:Work>
    </rdf:RDF>
  </metadata>
  <defs
     id="defs8" />
  <sodipodi:namedview
     pagecolor="#ffffff"
     bordercolor="#666666"
     borderopacity="1"
     objecttolerance="10"
     gridtolerance="10"
     guidetolerance="10"
     inkscape:pageopacity="0"
     inkscape:pageshadow="2"
     inkscape:window-width="1920"
     inkscape:window-height="1053"
     id="namedview6"
     showgrid="false"
     inkscape:zoom="17.833333"
     inkscape:cx="16.217626"
     inkscape:cy="17.756969"
     inkscape:window-x="0"
     inkscape:window-y="27"
     inkscape:window-maximized="1"
     inkscape:current-layer="svg4" />
  <g
     id="g12"
     transform="matrix(6.5147463,0,0,6.5147463,-384.13918,-248.42192)">
    <path
       class="st1"
       d="M 86.3,186.2 H 70.9 V 79.1 h 15.4 v 48.4 z"
       id="path6" />
    <path
       class="st1"
       d="m 108.9,79.1 h 41.6 c 39.6,0 57,28.3 57,53.6 0,27.5 -21.5,53.6 -56.8,53.6 h -41.8 z m 15.4,93.3 h 24.5 c 34.9,0 42.9,-26.5 42.9,-39.7 C 191.7,111.2 178,93 148,93 h -23.7 z"
       id="path8" />
    <path
       class="st1"
       d="m 88.7,56.8 c 0,5.5 -4.5,10.1 -10.1,10.1 -5.6,0 -10.1,-4.6 -10.1,-10.1 0,-5.6 4.5,-10.1 10.1,-10.1 5.6,0 10.1,4.6 10.1,10.1 z"
       id="path10" />
  </g>
</svg>
