<?xml version="1.0" encoding="UTF-8" standalone="no"?>
<svg
   xmlns:dc="http://purl.org/dc/elements/1.1/"
   xmlns:cc="http://creativecommons.org/ns#"
   xmlns:rdf="http://www.w3.org/1999/02/22-rdf-syntax-ns#"
   xmlns:svg="http://www.w3.org/2000/svg"
   xmlns="http://www.w3.org/2000/svg"
   xmlns:sodipodi="http://sodipodi.sourceforge.net/DTD/sodipodi-0.dtd"
   xmlns:inkscape="http://www.inkscape.org/namespaces/inkscape"
   fill="#000000"
   width="24px"
   height="24px"
   viewBox="0 0 1024 1024"
   version="1.1"
   id="svg4"
   sodipodi:docname="scholar.svg"
   inkscape:version="1.0.1 (3bc2e813f5, 2020-09-07, custom)">
  <metadata
     id="metadata10">
    <rdf:RDF>
      <cc:Work
         rdf:about="">
        <dc:format>image/svg+xml</dc:format>
        <dc:type
           rdf:resource="http://purl.org/dc/dcmitype/StillImage" />
      </cc:Work>
    </rdf:RDF>
  </metadata>
  <defs
     id="defs8" />
  <sodipodi:namedview
     pagecolor="#ffffff"
     bordercolor="#666666"
     borderopacity="1"
     objecttolerance="10"
     gridtolerance="10"
     guidetolerance="10"
     inkscape:pageopacity="0"
     inkscape:pageshadow="2"
     inkscape:window-width="1920"
     inkscape:window-height="1053"
     id="namedview6"
     showgrid="false"
     inkscape:zoom="12.610071"
     inkscape:cx="12.84009"
     inkscape:cy="11.618522"
     inkscape:window-x="0"
     inkscape:window-y="27"
     inkscape:window-maximized="1"
     inkscape:current-layer="svg4"
     inkscape:document-rotation="0" />
  <path
     fill="#fff"
     d="M 399.43683,16.975157 69.457083,306.86394 H 282.24777 c 15.41961,138.77653 126.44083,197.37107 240.54598,206.62283 -21.58746,55.51062 -12.33569,83.26591 21.58748,120.273 -132.60871,3.08392 -317.64407,80.182 -317.64407,206.62282 12.33569,138.77654 194.28714,166.53191 283.7209,166.53191 117.18907,3.0839 249.79775,-58.59461 277.55306,-166.53191 12.33569,-107.93728 -30.83922,-166.53183 -95.6016,-218.95851 -70.93024,-55.51062 -86.34984,-86.34985 -64.76239,-123.35692 46.25885,-52.42669 107.9373,-83.26591 120.273,-157.28006 6.16784,-52.42671 -6.16786,-86.34985 -18.50354,-132.60866 L 868.19315,90.989313 865.10916,140.3321 c -9.25176,6.16782 -15.41954,18.50354 -15.41954,27.75531 v 317.64405 c 6.16778,40.091 67.84624,33.92316 70.93021,0 V 168.08741 c 0,-9.25177 -6.16784,-21.58749 -15.41961,-24.67136 V 66.317958 l 49.3427,-49.342801 z M 578.30436,451.80831 C 390.18507,482.64755 310.00307,183.50701 461.1153,146.49992 633.81497,112.5768 717.08088,411.71732 578.30436,451.80831 Z m -15.41961,225.12638 c 185.03538,40.09099 188.11929,194.28717 30.83922,240.54601 -135.6926,27.75531 -252.88168,-12.33572 -249.79775,-92.51769 0,-77.0981 107.93731,-148.02832 218.95853,-148.02832 z"
     id="path4"
     style="fill:#ffffff;fill-opacity:1;stroke-width:3.08393" />
</svg>
