<?xml version="1.0" encoding="UTF-8" standalone="no"?>
<svg
   xmlns:ns1="http://www.iki.fi/pav/software/textext/"
   xmlns:dc="http://purl.org/dc/elements/1.1/"
   xmlns:cc="http://creativecommons.org/ns#"
   xmlns:rdf="http://www.w3.org/1999/02/22-rdf-syntax-ns#"
   xmlns:svg="http://www.w3.org/2000/svg"
   xmlns="http://www.w3.org/2000/svg"
   xmlns:sodipodi="http://sodipodi.sourceforge.net/DTD/sodipodi-0.dtd"
   xmlns:inkscape="http://www.inkscape.org/namespaces/inkscape"
   sodipodi:docname="web_icon.svg"
   inkscape:version="1.0 (4035a4fb49, 2020-05-01)"
   id="svg8"
   version="1.1"
   viewBox="0 0 111.125 111.125"
   height="420"
   width="420">
  <defs
     id="defs2" />
  <sodipodi:namedview
     inkscape:document-rotation="0"
     inkscape:window-maximized="1"
     inkscape:window-y="27"
     inkscape:window-x="1920"
     inkscape:window-height="1053"
     inkscape:window-width="1920"
     units="px"
     showgrid="false"
     inkscape:current-layer="layer1"
     inkscape:document-units="mm"
     inkscape:cy="147.92589"
     inkscape:cx="226.21819"
     inkscape:zoom="1.4"
     inkscape:pageshadow="2"
     inkscape:pageopacity="0.0"
     borderopacity="1.0"
     bordercolor="#666666"
     pagecolor="#ffffff"
     id="base" />
  <metadata
     id="metadata5">
    <rdf:RDF>
      <cc:Work
         rdf:about="">
        <dc:format>image/svg+xml</dc:format>
        <dc:type
           rdf:resource="http://purl.org/dc/dcmitype/StillImage" />
        <dc:title></dc:title>
      </cc:Work>
    </rdf:RDF>
  </metadata>
  <g
     transform="translate(0,-185.87498)"
     id="layer1"
     inkscape:groupmode="layer"
     inkscape:label="Layer 1">
    <rect
       rx="10"
       y="187.28287"
       x="1.3981895"
       height="108.30922"
       width="108.32862"
       id="rect842"
       style="fill:#000000;stroke:#0018db;stroke-width:0.510177;stroke-dasharray:0.510177, 2.04071" />
    <g
       style="fill:#ffffff"
       transform="matrix(5.6276121,0,0,5.6276121,-822.37755,-496.68796)"
       ns1:version="0.11.0"
       ns1:texconverter="pdflatex"
       ns1:pdfconverter="pdf2svg"
       ns1:text="b-fg"
       ns1:preamble="/home/b-fg/.config/inkscape/extensions/textext/default_packages.tex"
       ns1:scale="17.0756165189"
       ns1:alignment="middle center"
       ns1:jacobian_sqrt="6.023898"
       id="g24">
      <g
         transform="translate(-0.8123782,4.6979294)"
         style="fill:#ffffff"
         id="surface1">
        <g
           style="fill:#ffffff;fill-opacity:1"
           id="g21">
          <g
             id="g853">
            <path
               id="path13"
               d="m 152.19268,126.02156 v -3.88109 l -1.76762,0.1345 v 0.38427 c 0.8646,0 0.96066,0.0768 0.96066,0.69168 v 7.30104 h 0.30742 c 0,-0.0192 0.096,-0.19213 0.44191,-0.76853 0.17291,0.2882 0.69168,0.90302 1.59469,0.90302 1.46021,0 2.72829,-1.21043 2.72829,-2.78592 0,-1.55628 -1.19122,-2.76671 -2.59379,-2.76671 -0.96066,0 -1.47943,0.5764 -1.67156,0.78774 z m 0.0384,3.22783 v -2.51694 c 0,-0.23055 0,-0.24977 0.1345,-0.44191 0.48032,-0.69168 1.15279,-0.78774 1.44099,-0.78774 0.55719,0 0.99909,0.32662 1.28729,0.78774 0.32662,0.49955 0.34584,1.19123 0.34584,1.70999 0,0.4419 -0.0192,1.17201 -0.36506,1.7292 -0.26898,0.38426 -0.7301,0.78774 -1.38335,0.78774 -0.55718,0 -0.99909,-0.2882 -1.28729,-0.74932 -0.17292,-0.24978 -0.17292,-0.2882 -0.17292,-0.51876 z m 0,0"
               style="fill:#ffffff;stroke:none;stroke-width:0"
               inkscape:connector-curvature="0" />
            <path
               id="path17"
               d="m 160.98253,125.50277 v -1.42179 c 0,-1.07594 0.5764,-1.67155 1.11437,-1.67155 0.0384,0 0.23056,0 0.40348,0.0961 -0.13449,0.0384 -0.36505,0.21134 -0.36505,0.51875 0,0.26899 0.19213,0.51876 0.53797,0.51876 0.34584,0 0.53797,-0.24977 0.53797,-0.53797 0,-0.46112 -0.46112,-0.8646 -1.11437,-0.8646 -0.84538,0 -1.90211,0.65325 -1.90211,1.95976 v 1.40257 h -5.2721 v 0.38426 h 5.2721 v 3.97715 c 0,0.53797 -0.1345,0.53797 -0.94146,0.53797 v 0.38427 c 0.48034,-0.0192 1.05673,-0.0384 1.38336,-0.0384 0.49955,0 1.07594,0 1.55628,0.0384 v -0.38427 h -0.24978 c -0.90302,0 -0.92223,-0.13449 -0.92223,-0.57639 v -3.93873 h 1.38335 v -0.38426 z"
               style="fill:#ffffff;stroke:none;stroke-width:0"
               inkscape:connector-curvature="0"
               sodipodi:nodetypes="csscsssssccccsccsccsscccc" />
            <circle
               style="fill:#ffffff;stroke:#0018db;stroke-width:0.0138113;stroke-dasharray:0.0138113, 0.055245"
               id="path848"
               cx="157.46585"
               cy="130.25801"
               r="0.52199948" />
          </g>
        </g>
      </g>
    </g>
  </g>
</svg>
